Coordinates
version=1
nRows=12
nColumns=38
inDegrees=yes

Units are S.I. units (second, meters, Newtons, ...)
Angles are in degrees.

endheader
time	pelvis_tilt	pelvis_list	pelvis_rotation	pelvis_tx	pelvis_ty	pelvis_tz	hip_flexion_r	hip_adduction_r	hip_rotation_r	knee_angle_r	ankle_angle_r	subtalar_angle_r	mtp_angle_r	hip_flexion_l	hip_adduction_l	hip_rotation_l	knee_angle_l	ankle_angle_l	subtalar_angle_l	mtp_angle_l	lumbar_extension	lumbar_bending	lumbar_rotation	arm_flex_r	arm_add_r	arm_rot_r	elbow_flex_r	pro_sup_r	wrist_flex_r	wrist_dev_r	arm_flex_l	arm_add_l	arm_rot_l	elbow_flex_l	pro_sup_l	wrist_flex_l	wrist_dev_l
      2.23000000	     -2.27690671	     -1.92373943	      0.26939864	      1.11881718	      0.94643236	     -0.27655564	      5.78288360	      7.76804494	      0.54534717	    -16.70552143	      9.86371813	    -15.16936889	      0.00000000	     24.78683820	     -3.26731139	     -3.48389472	    -58.96695910	      0.76087049	    -12.21528043	      0.00000000	     -6.81449825	      1.46870853	      1.09075133	     10.00314768	    -13.13676349	     52.07307520	     34.92450543	     44.71125284	      0.00000000	      0.00000000	      0.28078619	     -9.54920949	     26.17582840	     46.12833879	     44.71125284	      0.00000000	      0.00000000
      2.24000000	     -2.32050321	     -1.62806473	     -0.10731954	      1.13086999	      0.94618707	     -0.27569522	      4.65499645	      7.57425741	      1.30495019	    -16.04910989	     10.13084397	    -15.57446815	      0.00000000	     25.58570786	     -2.83685899	     -3.79459215	    -56.67635793	      1.27944919	    -12.89287099	      0.00000000	     -6.79611284	      1.11067923	      1.55487072	     11.09201546	    -13.84099980	     51.68651681	     37.46223094	     44.73496665	      0.00000000	      0.00000000	      0.31908222	     -9.13200470	     27.94080529	     42.08301088	     44.73496665	      0.00000000	      0.00000000
      2.25000000	     -2.32291520	     -1.33245803	     -0.48149711	      1.14292336	      0.94574958	     -0.27471055	      3.59998737	      7.33037702	      1.68156971	    -15.62617855	     10.61657074	    -15.50251441	      0.00000000	     26.43603031	     -2.66369825	     -4.61208948	    -54.29596012	      1.10737750	    -13.57856551	      0.00000000	     -6.85771326	      0.70559584	      1.86257227	     12.56030943	    -13.78503177	     51.32316283	     38.11292078	     44.73851439	      0.00000000	      0.00000000	     -0.69954738	     -9.23143565	     28.26006177	     41.25555791	     44.73851439	      0.00000000	      0.00000000
      2.26000000	     -2.43071784	     -1.20970645	     -0.82510742	      1.15502506	      0.94494491	     -0.27383526	      2.61540517	      7.28260205	      2.25927449	    -15.10723850	     10.85170181	    -15.73179260	      0.00000000	     27.13974168	     -2.51186279	     -5.01541776	    -51.48739169	      1.38587420	    -14.02547674	      0.00000000	     -6.76670913	      0.53339845	      2.28402256	     13.41237012	    -14.55643650	     50.46947324	     40.81947111	     44.75438983	      0.00000000	      0.00000000	     -0.93818752	     -8.66940879	     29.11998323	     37.85555560	     44.75438983	      0.00000000	      0.00000000
      2.27000000	     -2.31516757	     -0.97550643	     -1.09188678	      1.16744244	      0.94422627	     -0.27304320	      1.47938444	      7.09089453	      2.31751665	    -14.77938374	     11.38174915	    -15.88216323	      0.00000000	     27.43549431	     -2.21461343	     -5.32511999	    -48.37650262	      1.71546983	    -13.92578388	      0.00000000	     -6.94738342	      0.23494223	      2.70326488	     13.13876460	    -14.65568224	     44.61499490	     45.08234232	     44.82408410	      0.00000000	      0.00000000	     -0.54579090	     -8.92742424	     35.02309479	     33.49121735	     44.82408410	      0.00000000	      0.00000000
      2.28000000	     -2.16252330	     -0.94783639	     -1.20369239	      1.18026830	      0.94333854	     -0.27262580	      0.21461136	      7.08859532	      2.20136178	    -14.30772429	     11.78167860	    -15.88589455	      0.00000000	     27.31911985	     -1.81767762	     -4.65642331	    -44.75062233	      2.85975129	    -13.30102724	      0.00000000	     -7.11266852	      0.16938754	      2.75210771	     14.45767036	    -14.68487575	     44.45832557	     45.73201668	     44.82590371	      0.00000000	      0.00000000	     -1.75237491	     -8.90187791	     35.05135875	     32.79408729	     44.82590371	      0.00000000	      0.00000000
      2.29000000	     -2.40987354	     -0.81361378	     -1.67838022	      1.19226227	      0.94175305	     -0.27149641	     -0.38266715	      7.00208797	      2.39737884	    -14.20736277	     12.11354868	    -15.88171512	      0.00000000	     28.08064536	     -1.95939068	     -5.96166403	    -41.48655013	      2.39544502	    -13.37379321	      0.00000000	     -6.92368669	     -0.05486109	      3.21464669	     15.73051113	    -14.77964841	     44.26468985	     46.31935374	     44.82680749	      0.00000000	      0.00000000	     -2.84172467	     -8.90277975	     35.05962350	     32.18519808	     44.82680749	      0.00000000	      0.00000000
      2.30000000	     -2.51067450	     -0.69399505	     -1.95010583	      1.20490232	      0.94017829	     -0.27088686	     -1.17650291	      6.91687212	      2.54674605	    -14.15127161	     12.57593084	    -15.97415130	      0.00000000	     28.23361125	     -1.75418385	     -6.27309180	    -37.61293478	      2.63961307	    -12.91043047	      0.00000000	     -6.81542356	     -0.22307170	      3.47519850	     16.86130187	    -14.83995973	     44.10936622	     47.07846268	     44.82775691	      0.00000000	      0.00000000	     -3.96443622	     -8.85365882	     35.03132443	     31.42045653	     44.82775691	      0.00000000	      0.00000000
      2.31000000	     -2.27488102	     -0.63697801	     -2.24927627	      1.21790301	      0.93880518	     -0.27041177	     -2.42242438	      6.86624172	      2.83309654	    -13.96033308	     13.02422524	    -16.19302391	      0.00000000	     27.61016946	     -1.50122206	     -5.84535692	    -33.31176320	      3.70723895	    -11.38891902	      0.00000000	     -7.10955228	     -0.32154721	      3.80175488	     17.22792298	    -15.98446345	     43.82374632	     51.60162919	     44.83643514	      0.00000000	      0.00000000	     -4.31302327	     -7.76959944	     34.31667624	     27.27780960	     44.83643514	      0.00000000	      0.00000000
      2.32000000	     -2.49676625	     -0.79003579	     -2.52478903	      1.23075457	      0.93680364	     -0.26989267	     -2.97492401	      7.02975296	      2.92994503	    -14.13473482	     13.23067493	    -16.20626357	      0.00000000	     27.74841960	     -1.58790960	     -6.09937844	    -29.31275815	      3.68976576	    -10.70610784	      0.00000000	     -6.85241588	     -0.17124372	      4.12807529	     18.16817068	    -16.03796342	     43.49189360	     52.00168716	     44.83706361	      0.00000000	      0.00000000	     -5.39979151	     -7.76846275	     34.39944229	     26.89013478	     44.83706361	      0.00000000	      0.00000000
      2.33000000	     -2.28108002	     -0.52405036	     -2.91063971	      1.24392198	      0.93531688	     -0.26944689	     -4.02016706	      6.70068411	      3.17431342	    -14.30860428	     13.84359571	    -16.23180322	      0.00000000	     27.22415514	     -1.35093394	     -6.80998052	    -25.16241752	      3.75937744	     -9.36395740	      0.00000000	     -7.10921177	     -0.52721834	      4.22635056	     19.18256672	    -15.93048844	     42.96305714	     53.28805511	     44.83892148	      0.00000000	      0.00000000	     -6.66498745	     -7.70050498	     34.42790004	     25.99059543	     44.83892148	      0.00000000	      0.00000000
      2.34000000	     -2.26026293	     -0.68041303	     -3.15667527	      1.25740045	      0.93344619	     -0.26931753	     -4.94973669	      6.78774472	      3.33173946	    -14.39568107	     14.07298988	    -15.93745227	      0.00000000	     26.95594860	     -1.50074453	     -7.33404181	    -21.39213564	      4.31339011	     -7.57038320	      0.00000000	     -7.10490909	     -0.33312319	      4.80404728	     18.15400803	    -16.83714164	     39.47692638	     58.83706864	     44.85293924	      0.00000000	      0.00000000	     -6.98620744	     -7.00557745	     34.63454397	     23.15556984	     44.85293924	      0.00000000	      0.00000000
